{"title":"A Dark Truth 2012 DVDRip XViD juggs","uid":8172587,"size":746634021,"categoryP":"video","categoryS":"movies","magnet":"?xt=urn:btih:27eb4cb6276763b43e64503a90f5f424314be178&amp;dn=A+Dark+Truth+2012+DVDRip+XViD+juggs&amp;tr=udp%3A%2F%2Ftracker.openbittorrent.com%3A80&amp;tr=udp%3A%2F%2Fopen.demonii.com%3A1337&amp;tr=udp%3A%2F%2Ftracker.coppersurfer.tk%3A6969&amp;tr=udp%3A%2F%2Fexodus.desync.com%3A6969","seeders":2,"leechers":2,"uploader":"juggs99","files":3,"time":1361460749,"description":" &lt;a href=&quot;http://leetleech.org/images/20588153543379311438.jpg&quot; rel=&quot;nofollow&quot; target=&quot;_NEW&quot;&gt;http://leetleech.org/images/20588153543379311438.jpg&lt;/a&gt;\n\n\nSource : DVDR-AN0NYM0US\n\nFormat : AVI\nFormat/Info : Audio Video Interleave\nFile size : 702 MiB\nDuration : 1h 45mn\nOverall bit rate : 927 Kbps\nWriting library : VirtualDub build 32842/release\n\nVideo\nID : 0\nFormat : MPEG-4 Visual\nFormat profile : Advanced Simple@L5\nFormat settings, BVOP : 4\nFormat settings, QPel : No\nFormat settings, GMC : No warppoints\nFormat settings, Matrix : Default (H.263)\nMuxing mode : Packed bitstream\nCodec ID : XVID\nCodec ID/Hint : XviD\nDuration : 1h 45mn\nBit rate : 790 Kbps\nWidth : 640 pixels\nHeight : 352 pixels\nDisplay aspect ratio : 16:9\nFrame rate : 23.976 fps\nColor space : YUV\nChroma subsampling : 4:2:0\nBit depth : 8 bits\nScan type : Progressive\nCompression mode : Lossy\nBits/(Pixel*Frame) : 0.146\nStream size : 598 MiB (85%)\nWriting library : XviD 64\n\nAudio\nID : 1\nFormat : MPEG Audio\nFormat version : Version 1\nFormat profile : Layer 3\nCodec ID : 55\nCodec ID/Hint : MP3\nDuration : 1h 45mn\nBit rate mode : Constant\nBit rate : 128 Kbps\nChannel(s) : 2 channels\nSampling rate : 44.1 KHz\nCompression mode : Lossy\nStream size : 97.0 MiB (14%)\nAlignment : Split accross interleaves\nInterleave, duration : 42 ms (1.00 video frame)\nInterleave, preload duration : 500 ms\nWriting library : LAME3.99r\nEncoding settings : -m s -V 4 -q 3 -lowpass 17 -b 128\n\n\nPlot\n\nA former CIA operative turned political talk show host is hired by a corporate whistle blower to expose her company's cover-up of a massacre in a South American village.\n\n\n &lt;a href=&quot;\nhttp://www.shotpix.com/images/18877789799070285865.png&quot; rel=&quot;nofollow&quot; target=&quot;_NEW&quot;&gt;\nhttp://www.shotpix.com/images/18877789799070285865.png&lt;/a&gt; &lt;a href=&quot;\nhttp://www.shotpix.com/images/08893318559026596520.png&quot; rel=&quot;nofollow&quot; target=&quot;_NEW&quot;&gt;\nhttp://www.shotpix.com/images/08893318559026596520.png&lt;/a&gt; &lt;a href=&quot;\nhttp://www.shotpix.com/images/92666152519468258193.png&quot; rel=&quot;nofollow&quot; target=&quot;_NEW&quot;&gt;\nhttp://www.shotpix.com/images/92666152519468258193.png&lt;/a&gt;","torrent":{"xt":"urn:btih:27eb4cb6276763b43e64503a90f5f424314be178","amp;dn":"A+Dark+Truth+2012+DVDRip+XViD+juggs","amp;tr":["udp%3A%2F%2Ftracker.openbittorrent.com%3A80","udp%3A%2F%2Fopen.demonii.com%3A1337","udp%3A%2F%2Ftracker.coppersurfer.tk%3A6969","udp%3A%2F%2Fexodus.desync.com%3A6969"],"infoHash":"27eb4cb6276763b43e64503a90f5f424314be178","infoHashBuffer":{"type":"Buffer","data":[39,235,76,182,39,103,99,180,62,100,80,58,144,245,244,36,49,75,225,120]},"announce":[],"urlList":[]}}